HIERARCHY
ROOT Hips
{
	OFFSET 0.0000 0.0000 0.0000
	CHANNELS 6 Xposition Yposition Zposition Zrotation Xrotation Yrotation
	JOINT Spine1
	{
		OFFSET -0.0137 5.0038 -0.0537
		CHANNELS 3 Zrotation Xrotation Yrotation
		JOINT Spine2
		{
			OFFSET -0.0000 7.1253 -0.0298
			CHANNELS 3 Zrotation Xrotation Yrotation
			JOINT Chest
			{
				OFFSET -0.0000 7.5501 -0.8160
				CHANNELS 3 Zrotation Xrotation Yrotation
				JOINT Neck1
				{
					OFFSET -0.1817 26.3113 -0.5533
					CHANNELS 3 Zrotation Xrotation Yrotation
					JOINT Neck2
					{
						OFFSET -0.0000 7.7094 2.3026
						CHANNELS 3 Zrotation Xrotation Yrotation
						JOINT Head
						{
							OFFSET -0.0000 6.1289 1.9537
							CHANNELS 3 Zrotation Xrotation Yrotation
							JOINT Jaw
							{
								OFFSET 0.0026 0.4756 3.0949
								CHANNELS 3 Zrotation Xrotation Yrotation
								End Site
								{
									OFFSET 0.0 1.0 0.0
								}
							}
							JOINT LeftEye
							{
								OFFSET 3.2064 5.3802 7.5869
								CHANNELS 3 Zrotation Xrotation Yrotation
								End Site
								{
									OFFSET 0.0 1.0 0.0
								}
							}
							JOINT RightEye
							{
								OFFSET -3.2224 5.3619 7.5582
								CHANNELS 3 Zrotation Xrotation Yrotation
								End Site
								{
									OFFSET 0.0 1.0 0.0
								}
							}
						}
					}
				}
				JOINT LeftShoulder
				{
					OFFSET 1.6217 23.2372 5.1134
					CHANNELS 3 Zrotation Xrotation Yrotation
					JOINT LeftArm
					{
						OFFSET 14.9198 0.0000 -5.5023
						CHANNELS 3 Zrotation Xrotation Yrotation
						JOINT LeftForeArm
						{
							OFFSET 28.7393 0.0000 -0.0026
							CHANNELS 3 Zrotation Xrotation Yrotation
							JOINT LeftHand
							{
								OFFSET 27.0940 -0.0000 0.0026
								CHANNELS 3 Zrotation Xrotation Yrotation
								JOINT LeftHandThumbEnd
								{
									OFFSET 12.2686 -3.2202 4.8331
									CHANNELS 3 Zrotation Xrotation Yrotation
									End Site
									{
										OFFSET 0.0 1.0 0.0
									}
								}
								JOINT LeftHandMiddleEnd
								{
									OFFSET 19.0120 -0.3129 -0.0340
									CHANNELS 3 Zrotation Xrotation Yrotation
									End Site
									{
										OFFSET 0.0 1.0 0.0
									}
								}
							}
						}
					}
				}
				JOINT RightShoulder
				{
					OFFSET -1.3801 23.1803 5.2142
					CHANNELS 3 Zrotation Xrotation Yrotation
					JOINT RightArm
					{
						OFFSET -15.0372 0.0000 -5.5456
						CHANNELS 3 Zrotation Xrotation Yrotation
						JOINT RightForeArm
						{
							OFFSET -28.7366 0.0000 -0.0026
							CHANNELS 3 Zrotation Xrotation Yrotation
							JOINT RightHand
							{
								OFFSET -27.1336 -0.0000 0.0026
								CHANNELS 3 Zrotation Xrotation Yrotation
								JOINT RightHandThumbEnd
								{
									OFFSET -12.2642 -3.2115 4.8040
									CHANNELS 3 Zrotation Xrotation Yrotation
									End Site
									{
										OFFSET 0.0 1.0 0.0
									}
								}
								JOINT RightHandMiddleEnd
								{
									OFFSET -19.0006 -0.3066 -0.0316
									CHANNELS 3 Zrotation Xrotation Yrotation
									End Site
									{
										OFFSET 0.0 1.0 0.0
									}
								}
							}
						}
					}
				}
			}
		}
	}
	JOINT LeftLeg
	{
		OFFSET 10.0432 -8.4345 2.5957
		CHANNELS 3 Zrotation Xrotation Yrotation
		JOINT LeftShin
		{
			OFFSET -0.0000 -43.2218 -0.8029
			CHANNELS 3 Zrotation Xrotation Yrotation
			JOINT LeftFoot
			{
				OFFSET 0.0000 -42.1551 -3.4815
				CHANNELS 3 Zrotation Xrotation Yrotation
				JOINT LeftToeBase
				{
					OFFSET 0.0000 -5.0595 13.2315
					CHANNELS 3 Zrotation Xrotation Yrotation
					End Site
					{
						OFFSET 0.0 1.0 0.0
					}
				}
			}
		}
	}
	JOINT RightLeg
	{
		OFFSET -10.0473 -8.2953 2.6203
		CHANNELS 3 Zrotation Xrotation Yrotation
		JOINT RightShin
		{
			OFFSET 0.0000 -43.3622 -0.8056
			CHANNELS 3 Zrotation Xrotation Yrotation
			JOINT RightFoot
			{
				OFFSET 0.0000 -42.1174 -3.4784
				CHANNELS 3 Zrotation Xrotation Yrotation
				JOINT RightToeBase
				{
					OFFSET -0.0000 -5.0796 13.2842
					CHANNELS 3 Zrotation Xrotation Yrotation
					End Site
					{
						OFFSET 0.0 1.0 0.0
					}
				}
			}
		}
	}
}
MOTION
Frames: 16
Frame Time: 0.033333
-0.1739 100.4852 -3.2216 0.2115 -4.8073 -0.1443 -0.1880 -0.6014 -0.0560 -0.6540 -5.0401 0.1050 -0.2869 11.7491 -1.9815 3.3396 10.3627 2.1709 -0.5555 -3.6251 0.5753 -1.7343 -6.1927 1.4868 0.0250 0.0343 -0.1330 0.7647 -10.5987 -4.0058 -0.7147 -10.6013 3.7404 -13.5380 12.9014 -10.4897 -59.9471 2.2876 -32.0544 -0.2794 0.0968 -23.6068 4.7195 -13.8195 -0.1479 -15.4090 10.6771 15.6250 -60.4683 1.6768 2.4052 17.6501 9.7414 14.8502 59.7918 6.7649 13.4379 -0.1916 0.1036 36.5726 -3.3435 -15.7446 -1.4552 15.6375 7.4211 -16.2854 50.0282 -3.5898 -5.1551 1.2648 3.8646 3.4291 0.0244 1.8003 0.1050 -2.8770 -1.0355 3.1777 1.6195 0.2236 -2.0353 -3.2067 3.2364 -16.0317 0.0786 1.6539 -0.2180 3.5194 -0.6723 -2.9713 -1.4163 0.5755 0.9652
-0.0689 100.5231 -3.5115 0.1536 -4.7936 -0.2697 -0.2249 -0.4957 -0.0886 -0.6259 -5.0242 0.1167 -0.2155 11.7866 -2.0249 3.3190 10.3771 2.1336 -0.4866 -3.5846 0.6120 -1.9052 -6.3451 1.5845 0.0197 0.0295 -0.0975 0.7648 -10.6003 -3.9699 -0.7257 -10.6022 3.7764 -13.2141 13.0536 -10.4834 -60.1686 2.0190 -32.0050 -0.2951 0.0518 -23.6838 4.9171 -13.7487 -0.4282 -15.4204 10.6942 15.6509 -60.4255 1.6932 2.3440 17.7486 9.8556 14.8091 59.6599 6.5565 13.1793 -0.1915 0.0836 36.4638 -3.4840 -15.9186 -1.1240 15.6573 7.4220 -16.2711 50.1758 -3.5723 -5.0729 1.1843 3.7488 3.1933 0.0148 1.7849 0.0765 -2.7360 -0.8928 3.5423 1.6234 0.3018 -2.0536 -3.1429 3.1270 -15.6425 0.0806 1.5644 -0.2319 3.4830 -0.4949 -3.2068 -1.4249 0.6506 0.9500
0.0981 100.5584 -3.8376 0.1063 -4.7379 -0.3963 -0.2679 -0.3804 -0.1064 -0.6064 -5.0192 0.0712 -0.1126 11.8775 -2.0359 3.3237 10.3945 2.0958 -0.4528 -3.6011 0.6582 -2.1130 -6.4804 1.6408 0.0176 0.0230 -0.0835 0.7657 -10.6313 -3.9579 -0.7309 -10.6304 3.7918 -12.7681 13.1268 -10.4502 -60.5434 1.8127 -32.0268 -0.2950 0.0076 -23.8762 5.1611 -13.9596 -0.6795 -15.4059 10.7249 15.7413 -60.3825 1.6707 2.4164 17.8126 9.9376 14.7844 59.5258 6.4069 12.9146 -0.1818 0.0783 36.3856 -3.7093 -16.3269 -0.8453 15.6724 7.4234 -16.2520 50.2340 -3.5735 -5.0233 1.0435 3.4172 2.8857 0.0090 1.9862 0.0598 -2.4486 -0.7577 3.9676 1.6286 0.3962 -2.0373 -3.0814 2.8670 -15.1908 0.0814 1.5906 -0.2589 3.4372 -0.2766 -3.5282 -1.4281 0.7518 0.9702
0.3332 100.5908 -4.1887 0.0381 -4.6037 -0.6021 -0.2953 -0.2079 -0.1306 -0.5921 -4.9919 0.0341 0.0487 11.9516 -2.0302 3.2968 10.3636 2.0629 -0.4411 -3.6361 0.7577 -2.3290 -6.8094 1.7404 0.0186 0.0194 -0.0857 0.7716 -10.6568 -3.9619 -0.7351 -10.6544 3.7899 -12.2308 13.1855 -10.4199 -61.0090 1.6237 -32.2139 -0.2741 -0.0103 -24.1407 5.5774 -14.2868 -1.0224 -15.3775 10.7352 15.7797 -60.3015 1.6410 2.4390 17.7442 10.0090 14.7991 59.4305 6.3092 12.8106 -0.2149 0.0797 36.3511 -3.8367 -16.6777 -0.7182 15.6883 7.4419 -16.2380 50.2649 -3.5573 -5.0029 0.8921 2.7097 2.7017 0.0031 2.6300 0.0505 -2.0716 -0.7308 4.3865 1.6293 0.4880 -2.0104 -2.9962 2.2771 -14.7448 0.0704 1.9083 -0.2926 3.3842 -0.0536 -3.7505 -1.4296 0.8277 0.9890
0.6234 100.6187 -4.5206 -0.0236 -4.3777 -0.9286 -0.3238 0.0354 -0.1389 -0.5797 -4.9374 -0.0060 0.2520 11.9913 -2.0252 3.2173 10.2318 2.0135 -0.4056 -3.6522 0.9033 -2.5595 -7.3869 1.9048 0.0215 0.0233 -0.0891 0.7783 -10.6575 -3.9650 -0.7361 -10.6549 3.7831 -11.6203 13.2907 -10.4328 -61.5055 1.3665 -32.6192 -0.2502 -0.0058 -24.3376 6.0737 -14.5514 -1.4090 -15.3148 10.7249 15.7635 -60.2273 1.6227 2.4127 17.4830 10.0797 14.8522 59.3811 6.1756 12.8767 -0.2300 0.0878 36.2992 -3.8280 -17.0103 -0.6811 15.6900 7.4537 -16.2256 50.2787 -3.5285 -4.9757 0.6898 1.6274 2.6315 0.0016 3.6714 0.0475 -1.6426 -0.7737 4.8413 1.6296 0.6071 -1.9821 -2.9266 1.0813 -14.4011 0.0527 2.9830 -0.3031 3.3657 0.0221 -3.7629 -1.4316 0.9178 0.9995
1.0063 100.6269 -5.0246 0.0088 -4.0683 -1.4848 -0.4213 0.3506 -0.1174 -0.5738 -4.8513 -0.0608 0.4597 11.9665 -2.0460 3.0932 10.0406 1.9790 -0.3316 -3.6551 1.1102 -2.7872 -8.0882 2.1834 0.0246 0.0328 -0.0906 0.7814 -10.6421 -3.9659 -0.7333 -10.6389 3.7792 -10.9773 13.4048 -10.4827 -61.9955 1.1404 -33.2634 -0.2099 0.0001 -24.3939 6.4071 -14.5730 -1.7289 -15.2523 10.7384 15.7681 -60.1971 1.6378 2.3865 17.0387 10.1486 14.9903 59.3633 5.9681 13.0171 -0.2111 0.0829 36.2951 -3.7354 -17.2996 -0.6827 15.6944 7.4570 -16.2468 50.2470 -3.5451 -4.9733 0.3421 0.3937 2.7483 -0.0021 4.6775 0.0523 -1.1708 -0.7314 5.3508 1.6346 0.7572 -1.9596 -2.9714 -0.9653 -14.1652 0.0305 5.2460 -0.2950 3.4551 -0.2197 -3.5114 -1.4343 1.0014 0.9975
1.4931 100.6092 -5.7364 0.2112 -3.6978 -2.2731 -0.6426 0.7178 -0.1095 -0.5639 -4.7327 -0.1011 0.6171 11.8777 -2.0855 2.9314 9.8322 1.9682 -0.2260 -3.6648 1.3584 -2.9845 -8.8641 2.5467 0.0275 0.0421 -0.0894 0.7812 -10.6264 -3.9655 -0.7272 -10.6188 3.7797 -10.3467 13.5395 -10.5903 -62.4252 0.9249 -34.0812 -0.1660 0.0009 -24.2912 6.5475 -14.4336 -1.9238 -15.2044 10.7520 15.7713 -60.2123 1.6718 2.3930 16.4509 10.1603 15.1578 59.4287 5.6610 13.1193 -0.1431 0.0684 36.3735 -3.6567 -17.5335 -0.6729 15.6971 7.4501 -16.2577 50.1800 -3.5655 -4.9854 -0.2162 -0.7407 3.0830 -0.0087 5.2289 0.0615 -0.6946 -0.4569 5.9249 1.6461 0.8905 -1.9544 -3.2229 -3.6572 -14.1297 0.0145 8.2897 -0.2668 3.7071 -0.5978 -2.8641 -1.4393 0.9298 1.0002
2.0494 100.5806 -6.5308 0.5820 -3.3424 -3.2012 -0.9791 1.1028 -0.1297 -0.5356 -4.5950 -0.1166 0.6949 11.8073 -2.1607 2.7183 9.6405 1.9811 -0.1178 -3.6828 1.5721 -3.1418 -9.5761 2.8999 0.0292 0.0536 -0.0858 0.7748 -10.6108 -3.9619 -0.7175 -10.5980 3.7823 -9.8239 13.6894 -10.7367 -62.6856 0.5579 -34.6963 -0.1659 -0.0206 -24.0684 6.5480 -14.1868 -2.0539 -15.1797 10.7841 15.7990 -60.2812 1.7543 2.4108 15.8219 10.1627 15.3191 59.4802 5.1834 13.1542 -0.0749 0.0654 36.4564 -3.5839 -17.5868 -0.6620 15.7029 7.4542 -16.2867 50.0233 -3.6366 -5.0237 -0.9486 -1.5354 3.7483 -0.0114 5.0466 0.0860 -0.2472 0.0941 6.4988 1.6607 1.0329 -1.9654 -3.6914 -6.7554 -14.3869 0.0151 11.8693 -0.2029 4.1818 -1.0141 -1.7490 -1.4463 0.6119 1.0058
2.5488 100.5200 -7.4396 1.0212 -3.1577 -4.1122 -1.3255 1.4667 -0.2495 -0.5156 -4.3891 -0.0512 0.7134 11.7738 -2.2804 2.4696 9.5345 2.1262 -0.0592 -3.6793 1.7203 -3.2027 -10.1680 3.1594 0.0246 0.0656 -0.0542 0.7742 -10.6247 -3.9321 -0.7270 -10.5989 3.8176 -9.5523 13.7704 -10.8394 -62.6918 0.3139 -35.0695 -0.1503 0.0104 -23.8367 6.4669 -14.0311 -2.0656 -15.2355 10.7116 15.7539 -60.3243 1.8071 2.4529 15.2805 10.1211 15.4884 59.6356 4.5584 12.9236 -0.1964 0.1287 36.4446 -3.6355 -17.3555 -0.5166 15.7315 7.4475 -16.3203 49.9041 -3.6245 -5.1024 -1.7692 -1.7796 4.6484 -0.0306 4.0827 0.0717 0.3756 0.8319 7.2045 1.6522 1.2499 -1.9582 -4.3445 -9.9192 -15.0893 0.0498 15.8119 -0.0496 5.5693 -1.3392 -0.2769 -1.4541 0.2140 0.9138
2.9655 100.4032 -8.3479 1.4336 -3.1994 -4.8029 -1.6386 1.7519 -0.3376 -0.5161 -4.2693 -0.0889 0.7687 11.8277 -2.2640 2.1611 9.7637 2.3289 -0.0804 -3.6994 1.7336 -3.1245 -10.2962 3.1053 0.0279 0.0643 -0.0527 0.7615 -10.6141 -3.9246 -0.7076 -10.5960 3.8128 -9.6015 13.8736 -11.0442 -62.3046 0.0846 -35.2166 -0.3009 0.0145 -23.3322 6.4059 -14.0930 -2.0461 -15.2613 10.7370 15.7406 -60.2754 1.8758 2.3732 14.9083 10.2359 15.6176 59.7323 3.7900 12.3810 -0.2268 0.1465 36.2495 -3.9621 -17.8608 -0.4855 15.6303 7.4630 -16.3387 49.7872 -3.6105 -5.1218 -2.4611 -1.6825 5.6526 0.0014 2.9943 0.0753 0.7539 1.5465 7.3877 1.6480 1.2782 -1.9408 -5.0256 -12.8271 -15.7926 0.0879 21.0558 0.0860 7.6829 -2.9217 0.7704 -1.4328 -0.1052 0.9487
3.2594 100.2282 -9.2806 1.9581 -3.5815 -5.0910 -1.9577 2.0379 -0.4326 -0.5308 -4.1567 -0.0940 0.7121 11.8839 -2.3239 1.8493 10.3681 2.4838 -0.1563 -3.6688 1.6566 -3.0220 -10.2405 2.9435 0.0298 0.0775 -0.0653 0.7424 -10.5902 -3.9308 -0.6845 -10.5798 3.7919 -9.8341 13.9378 -11.1453 -61.6202 0.0424 -35.5042 -0.4090 -0.0149 -22.5808 6.3466 -14.2704 -1.9031 -15.3210 10.7710 15.7168 -60.2864 1.9459 2.2985 14.7246 10.4565 15.5885 59.9299 2.9960 11.7910 -0.3112 0.1682 35.7959 -4.4809 -18.7603 -0.4720 15.5603 7.4753 -16.3557 49.7470 -3.6332 -5.1078 -3.1743 -1.3953 6.3857 0.0142 2.2395 -0.0064 1.0430 2.2098 7.4770 1.6456 1.2315 -1.9436 -5.9834 -15.3551 -16.5222 0.0908 28.8699 0.1300 8.7653 -4.9131 0.2366 -1.4367 -0.1721 0.9301
3.4359 100.0405 -10.1577 2.5326 -4.1585 -5.0617 -2.2056 2.2256 -0.4812 -0.5566 -4.1167 -0.1106 0.5727 11.9786 -2.3810 1.5706 11.2611 2.5565 -0.2845 -3.6505 1.4667 -2.9134 -10.0454 2.7408 0.0311 0.0846 -0.0677 0.7267 -10.5823 -3.9279 -0.6665 -10.5784 3.7825 -10.1380 13.9740 -11.1347 -60.8940 -0.0156 -35.6704 -0.3989 -0.0421 -21.7686 6.3925 -14.6151 -1.8319 -15.3571 10.8000 15.7482 -60.3909 1.9526 2.2287 14.6580 10.6495 15.4265 60.1510 2.5310 11.3006 -0.3577 0.1840 35.3095 -4.9088 -19.3931 -0.4764 15.5245 7.5028 -16.4210 49.7918 -3.6175 -5.0978 -3.8767 -1.1916 6.5964 0.0196 1.9645 -0.0797 1.3055 2.7914 7.6014 1.6403 1.2225 -1.9722 -7.2993 -17.0122 -16.7080 0.0593 38.4247 0.0745 8.3081 -6.3911 -1.3247 -1.4515 -0.0307 0.8597
3.4944 99.8729 -11.0217 2.9970 -4.7056 -4.7887 -2.3388 2.1960 -0.5046 -0.5835 -4.1269 -0.1072 0.4840 12.0277 -2.3629 1.3521 12.2194 2.6371 -0.3895 -3.6483 1.1557 -2.8276 -9.6563 2.4833 0.0328 0.0806 -0.0660 0.7168 -10.5789 -3.9214 -0.6535 -10.5786 3.7776 -10.4640 13.9486 -11.0677 -60.3485 -0.0938 -35.5189 -0.3161 -0.0509 -21.1571 6.4559 -14.9349 -1.9118 -15.3961 10.8252 15.8150 -60.4612 1.8876 2.1634 14.7264 10.7067 15.2087 60.2971 2.6046 10.9339 -0.3355 0.2038 34.8743 -4.8990 -19.3951 -0.5959 15.4680 7.5210 -16.4869 49.8430 -3.5987 -5.0852 -4.4204 -1.1646 6.4947 0.0138 1.9015 -0.1007 1.4926 3.3565 7.6216 1.6377 1.2382 -1.9861 -8.6930 -17.1348 -16.3797 0.0008 46.9803 -0.0166 7.5450 -7.1596 -2.8414 -1.4483 0.0807 0.8020
3.4367 99.6974 -11.9098 3.3746 -5.1090 -4.4071 -2.4216 1.9570 -0.4890 -0.6199 -4.1880 -0.1015 0.4678 12.0208 -2.2665 1.1910 13.1370 2.7183 -0.4265 -3.6650 0.8167 -2.8034 -9.1483 2.2192 0.0347 0.0675 -0.0687 0.7118 -10.5918 -3.9234 -0.6453 -10.5931 3.7732 -10.7660 13.8592 -10.9760 -59.9720 -0.0889 -35.1699 -0.1879 -0.0658 -20.8928 6.5168 -15.1683 -2.0631 -15.4375 10.8335 15.8828 -60.4570 1.7814 2.1157 14.9415 10.7260 15.0323 60.3237 3.0335 10.6724 -0.2597 0.2041 34.5092 -4.5589 -18.9918 -0.7991 15.4005 7.5233 -16.5244 49.8778 -3.5829 -5.0679 -4.8396 -1.3638 6.3529 -0.0009 1.9036 -0.0722 1.5587 3.9456 7.5031 1.6360 1.2456 -1.9791 -10.0218 -15.7300 -15.6680 -0.0091 53.2324 -0.0125 7.1164 -7.1976 -3.7135 -1.4344 0.0223 0.7955
3.2878 99.5287 -12.8933 3.7374 -5.3222 -3.9869 -2.5228 1.5748 -0.4651 -0.6795 -4.3058 -0.0541 0.4924 11.9409 -2.1379 1.1064 13.9318 2.7754 -0.4454 -3.6855 0.5422 -2.8045 -8.6229 1.9629 0.0353 0.0546 -0.0640 0.7093 -10.6195 -3.9222 -0.6422 -10.6203 3.7806 -10.9635 13.7086 -10.8752 -59.7580 0.0922 -34.8422 -0.0565 -0.0749 -21.0153 6.5101 -15.2256 -2.1713 -15.4483 10.8558 15.9561 -60.4294 1.7074 2.0910 15.2419 10.7266 14.8882 60.3055 3.6355 10.5261 -0.1807 0.2045 34.1887 -4.1193 -18.4809 -1.0265 15.3931 7.5078 -16.5088 49.9566 -3.5919 -5.0281 -5.1988 -1.8023 6.2104 -0.0070 1.8900 0.0099 1.4813 4.6188 7.3404 1.6294 1.2598 -1.9683 -11.1847 -12.9934 -14.6809 0.0642 56.5859 0.1370 7.2167 -6.7118 -3.8143 -1.4312 -0.2285 0.8387
3.0581 99.3521 -14.0218 4.1004 -5.3242 -3.5947 -2.6469 1.1206 -0.4276 -0.7486 -4.5022 0.0291 0.5246 11.8396 -2.0009 1.1169 14.5399 2.8285 -0.4968 -3.6887 0.3254 -2.8338 -8.1784 1.7213 0.0348 0.0450 -0.0465 0.7103 -10.6399 -3.9082 -0.6448 -10.6422 3.8013 -11.1341 13.5234 -10.8030 -59.5576 0.4045 -34.6298 0.0312 -0.0815 -21.3724 6.4485 -15.2388 -2.2344 -15.4093 10.8801 15.9865 -60.4529 1.6764 2.0528 15.6324 10.7098 14.7906 60.2268 4.1834 10.3254 -0.1122 0.2007 33.9364 -3.8109 -18.1410 -1.2066 15.4116 7.4962 -16.5078 50.0818 -3.5874 -4.9939 -5.5206 -2.5459 6.0323 -0.0100 1.8858 0.0953 1.3159 5.3293 7.2533 1.6212 1.2633 -1.9618 -12.0296 -9.2822 -13.5078 0.1385 56.9975 0.3437 7.8226 -6.0624 -3.4340 -1.4392 -0.5600 0.8925
